# xmcd CD database file
#
# Track frame offsets:
#	150
#	10790
#	23398
#	38412
#	51265
#	64396
#	78920
#	93233
#	107429
#	121564
#	131845
#	145799
#	157250
#	170406
#	182743
#	197354
#	213914
#	226405
#	239466
#	252401
#	267485
#	281814
#
# Disc length: 3960 seconds
#
# Revision: 0
# Processed by: cddbd v1.4PL0 Copyright (c) Steve Scherf et al.
# Submitted via: CDex 1.50
#
DISCID=280f7616
DTITLE=Dinah Shore - Sophisticated Lady
DYEAR=2000
DGENRE=Jazz
TTITLE0=Yes My Darling Daughter
TTITLE1=Somebody Loves Me
TTITLE2=Murder He Says
TTITLE3=Body and Soul
TTITLE4=I Hear A Rapsody
TTITLE5=Something To Remeber You By
TTITLE6=They Didnt Believe Me
TTITLE7=Laughing on The Outside (Crying on The Inside)
TTITLE8=Sophisticated Lady
TTITLE9=Three Little Sisters
TTITLE10=Cloe
TTITLE11=Down Argentine Way
TTITLE12=You'd Be So Nice To Come Home To
TTITLE13=I'll Walk Alone
TTITLE14=Manhatten Serenade
TTITLE15=Stardust
TTITLE16=You and I
TTITLE17=He's My Guy
TTITLE18=The Memphis Blues
TTITLE19=Skylark
TTITLE20=Blues in the Night
TTITLE21=Smoke Gets In Your Eyes
EXTD=YEAR: 2000
EXTT0=
EXTT1=
EXTT2=
EXTT3=
EXTT4=
EXTT5=
EXTT6=
EXTT7=
EXTT8=
EXTT9=
EXTT10=
EXTT11=
EXTT12=
EXTT13=
EXTT14=
EXTT15=
EXTT16=
EXTT17=
EXTT18=
EXTT19=
EXTT20=
EXTT21=
PLAYORDER=
